<svg width="28" height="26" viewBox="0 0 28 26" fill="none" xmlns="http://www.w3.org/2000/svg">
<path d="M0.808594 0C1.60547 0.117188 2.30859 0.199219 2.91797 0.246094C3.55078 0.292969 4.07812 0.339844 4.5 0.386719C4.99219 0.433594 5.41406 0.457031 5.76562 0.457031H7.13672C8.05078 0.457031 9.5625 0.421875 11.6719 0.351562C11.1562 0.515625 10.7227 0.75 10.3711 1.05469C10.043 1.35937 9.77344 1.67578 9.5625 2.00391C9.30469 2.37891 9.11719 2.76562 9 3.16406C8.85938 3.65625 8.73047 4.3125 8.61328 5.13281C8.49609 5.85937 8.37891 6.80859 8.26172 7.98047C8.16797 9.15234 8.07422 10.6172 7.98047 12.375C8.98828 11.2266 9.86719 10.207 10.6172 9.31641C11.3906 8.42578 12.0586 7.64062 12.6211 6.96094C13.1836 6.28125 13.6523 5.69531 14.0273 5.20312C14.4258 4.71094 14.7539 4.28906 15.0117 3.9375C15.6211 3.14063 15.9727 2.60156 16.0664 2.32031C16.0898 2.15625 16.0781 1.95703 16.0312 1.72266C15.9844 1.53516 15.9141 1.3125 15.8203 1.05469C15.7266 0.773438 15.5859 0.46875 15.3984 0.140625C16.3359 0.1875 17.1328 0.222656 17.7891 0.246094C18.4688 0.269531 19.0312 0.292969 19.4766 0.316406C19.9922 0.339844 20.4141 0.351562 20.7422 0.351562H22.2188C22.7578 0.351562 23.4609 0.351562 24.3281 0.351562C25.1953 0.328125 26.2852 0.304687 27.5977 0.28125C26.7305 0.492188 25.9102 0.773438 25.1367 1.125C24.3633 1.47656 23.6719 1.81641 23.0625 2.14453C22.3594 2.54297 21.7031 2.95312 21.0938 3.375C20.4844 3.84375 19.8047 4.39453 19.0547 5.02734C18.4219 5.56641 17.6836 6.23438 16.8398 7.03125C15.9961 7.80469 15.082 8.70703 14.0977 9.73828C15.1523 11.8008 16.0664 13.5 16.8398 14.8359C17.6367 16.1484 18.3047 17.2031 18.8438 18C19.4531 18.9375 19.9688 19.6523 20.3906 20.1445C20.8125 20.5898 21.3047 21.0469 21.8672 21.5156C22.3359 21.9141 22.9219 22.3594 23.625 22.8516C24.3281 23.3203 25.1367 23.7773 26.0508 24.2227L16.0312 24.7148C16.1719 24.5273 16.2539 24.3047 16.2773 24.0469C16.3242 23.7656 16.3477 23.5078 16.3477 23.2734C16.3477 23.0156 16.3242 22.7344 16.2773 22.4297C16.1836 22.0547 15.9375 21.4453 15.5391 20.6016C15.2109 19.875 14.707 18.8555 14.0273 17.543C13.3477 16.207 12.4102 14.4492 11.2148 12.2695L8.22656 15.3984C8.10938 16.1484 8.05078 16.8281 8.05078 17.4375C8.05078 18.0469 8.07422 18.5508 8.12109 18.9492C8.19141 19.4414 8.28516 19.8633 8.40234 20.2148C8.54297 20.5664 8.74219 20.9648 9 21.4102C9.21094 21.8086 9.49219 22.2773 9.84375 22.8164C10.1953 23.3555 10.6406 23.9531 11.1797 24.6094C10.6406 24.4688 10.1016 24.375 9.5625 24.3281C9.02344 24.2578 8.53125 24.2109 8.08594 24.1875C7.57031 24.1641 7.07812 24.1758 6.60938 24.2227C6.11719 24.2695 5.54297 24.3398 4.88672 24.4336C4.32422 24.5273 3.63281 24.6445 2.8125 24.7852C1.99219 24.9258 1.05469 25.1016 0 25.3125C0.515625 25.0078 0.925781 24.6797 1.23047 24.3281C1.53516 23.9766 1.78125 23.6367 1.96875 23.3086C2.17969 22.9336 2.32031 22.5703 2.39062 22.2188C2.4375 21.9141 2.47266 21.2578 2.49609 20.25C2.54297 19.2422 2.56641 18.0703 2.56641 16.7344C2.58984 15.375 2.58984 13.9453 2.56641 12.4453C2.54297 10.9453 2.51953 9.53906 2.49609 8.22656C2.47266 6.91406 2.4375 5.80078 2.39062 4.88672C2.36719 3.94922 2.34375 3.375 2.32031 3.16406C2.25 2.83594 2.15625 2.48437 2.03906 2.10938C1.92188 1.78125 1.75781 1.44141 1.54688 1.08984C1.35938 0.714844 1.11328 0.351562 0.808594 0Z" fill="#194101"/>
</svg>
